<?xml version="1.0" encoding="utf-8" standalone="no"?>
<!DOCTYPE svg PUBLIC "-//W3C//DTD SVG 1.1//EN"
  "http://www.w3.org/Graphics/SVG/1.1/DTD/svg11.dtd">
<svg xmlns:xlink="http://www.w3.org/1999/xlink" width="576pt" height="360pt" viewBox="0 0 576 360" xmlns="http://www.w3.org/2000/svg" version="1.1">
 <metadata>
  <rdf:RDF xmlns:dc="http://purl.org/dc/elements/1.1/" xmlns:cc="http://creativecommons.org/ns#" xmlns:rdf="http://www.w3.org/1999/02/22-rdf-syntax-ns#">
   <cc:Work>
    <dc:type rdf:resource="http://purl.org/dc/dcmitype/StillImage"/>
    <dc:date>2026-04-13T10:12:46.238147</dc:date>
    <dc:format>image/svg+xml</dc:format>
    <dc:creator>
     <cc:Agent>
      <dc:title>Matplotlib v3.10.8, https://matplotlib.org/</dc:title>
     </cc:Agent>
    </dc:creator>
   </cc:Work>
  </rdf:RDF>
 </metadata>
 <defs>
  <style type="text/css">*{stroke-linejoin: round; stroke-linecap: butt}</style>
 </defs>
 <g id="figure_1">
  <g id="patch_1">
   <path d="M 0 360 
L 576 360 
L 576 0 
L 0 0 
z
" style="fill: #ffffff"/>
  </g>
  <g id="axes_1">
   <g id="patch_2">
    <path d="M 83.124 301.716 
L 557.856 301.716 
L 557.856 35.7315 
L 83.124 35.7315 
z
" style="fill: #ffffff"/>
   </g>
   <g id="matplotlib.axis_1">
    <g id="xtick_1">
     <g id="line2d_1">
      <path d="M 109.635946 301.716 
L 109.635946 35.7315 
" clip-path="url(#p7f48b33368)" style="fill: none; stroke: #cccccc; stroke-linecap: round"/>
     </g>
     <g id="text_1">
      <!-- −50 -->
      <g style="fill: #262626" transform="translate(96.574821 322.239031) scale(0.154 -0.154)">
       <defs>
        <path id="ArialMT-2212" d="M 3381 1997 
L 356 1997 
L 356 2522 
L 3381 2522 
L 3381 1997 
z
" transform="scale(0.015625)"/>
        <path id="ArialMT-35" d="M 266 1200 
L 856 1250 
Q 922 819 1161 601 
Q 1400 384 1738 384 
Q 2144 384 2425 690 
Q 2706 997 2706 1503 
Q 2706 1984 2436 2262 
Q 2166 2541 1728 2541 
Q 1456 2541 1237 2417 
Q 1019 2294 894 2097 
L 366 2166 
L 809 4519 
L 3088 4519 
L 3088 3981 
L 1259 3981 
L 1013 2750 
Q 1425 3038 1878 3038 
Q 2478 3038 2890 2622 
Q 3303 2206 3303 1553 
Q 3303 931 2941 478 
Q 2500 -78 1738 -78 
Q 1113 -78 717 272 
Q 322 622 266 1200 
z
" transform="scale(0.015625)"/>
        <path id="ArialMT-30" d="M 266 2259 
Q 266 3072 433 3567 
Q 600 4063 929 4331 
Q 1259 4600 1759 4600 
Q 2128 4600 2406 4451 
Q 2684 4303 2865 4023 
Q 3047 3744 3150 3342 
Q 3253 2941 3253 2259 
Q 3253 1453 3087 958 
Q 2922 463 2592 192 
Q 2263 -78 1759 -78 
Q 1097 -78 719 397 
Q 266 969 266 2259 
z
M 844 2259 
Q 844 1131 1108 757 
Q 1372 384 1759 384 
Q 2147 384 2411 759 
Q 2675 1134 2675 2259 
Q 2675 3391 2411 3762 
Q 2147 4134 1753 4134 
Q 1366 4134 1134 3806 
Q 844 3388 844 2259 
z
" transform="scale(0.015625)"/>
       </defs>
       <use xlink:href="#ArialMT-2212"/>
       <use xlink:href="#ArialMT-35" transform="translate(58.398438 0)"/>
       <use xlink:href="#ArialMT-30" transform="translate(114.013672 0)"/>
      </g>
     </g>
    </g>
    <g id="xtick_2">
     <g id="line2d_2">
      <path d="M 214.019141 301.716 
L 214.019141 35.7315 
" clip-path="url(#p7f48b33368)" style="fill: none; stroke: #cccccc; stroke-linecap: round"/>
     </g>
     <g id="text_2">
      <!-- 0 -->
      <g style="fill: #262626" transform="translate(209.737219 322.239031) scale(0.154 -0.154)">
       <use xlink:href="#ArialMT-30"/>
      </g>
     </g>
    </g>
    <g id="xtick_3">
     <g id="line2d_3">
      <path d="M 318.402336 301.716 
L 318.402336 35.7315 
" clip-path="url(#p7f48b33368)" style="fill: none; stroke: #cccccc; stroke-linecap: round"/>
     </g>
     <g id="text_3">
      <!-- 50 -->
      <g style="fill: #262626" transform="translate(309.838492 322.239031) scale(0.154 -0.154)">
       <use xlink:href="#ArialMT-35"/>
       <use xlink:href="#ArialMT-30" transform="translate(55.615234 0)"/>
      </g>
     </g>
    </g>
    <g id="xtick_4">
     <g id="line2d_4">
      <path d="M 422.785531 301.716 
L 422.785531 35.7315 
" clip-path="url(#p7f48b33368)" style="fill: none; stroke: #cccccc; stroke-linecap: round"/>
     </g>
     <g id="text_4">
      <!-- 100 -->
      <g style="fill: #262626" transform="translate(409.939765 322.239031) scale(0.154 -0.154)">
       <defs>
        <path id="ArialMT-31" d="M 2384 0 
L 1822 0 
L 1822 3584 
Q 1619 3391 1289 3197 
Q 959 3003 697 2906 
L 697 3450 
Q 1169 3672 1522 3987 
Q 1875 4303 2022 4600 
L 2384 4600 
L 2384 0 
z
" transform="scale(0.015625)"/>
       </defs>
       <use xlink:href="#ArialMT-31"/>
       <use xlink:href="#ArialMT-30" transform="translate(55.615234 0)"/>
       <use xlink:href="#ArialMT-30" transform="translate(111.230469 0)"/>
      </g>
     </g>
    </g>
    <g id="xtick_5">
     <g id="line2d_5">
      <path d="M 527.168726 301.716 
L 527.168726 35.7315 
" clip-path="url(#p7f48b33368)" style="fill: none; stroke: #cccccc; stroke-linecap: round"/>
     </g>
     <g id="text_5">
      <!-- 150 -->
      <g style="fill: #262626" transform="translate(514.32296 322.239031) scale(0.154 -0.154)">
       <use xlink:href="#ArialMT-31"/>
       <use xlink:href="#ArialMT-35" transform="translate(55.615234 0)"/>
       <use xlink:href="#ArialMT-30" transform="translate(111.230469 0)"/>
      </g>
     </g>
    </g>
    <g id="text_6">
     <!-- ee value -->
     <g style="fill: #262626" transform="translate(294.026719 339.320719) scale(0.14 -0.14)">
      <defs>
       <path id="ArialMT-65" d="M 2694 1069 
L 3275 997 
Q 3138 488 2766 206 
Q 2394 -75 1816 -75 
Q 1088 -75 661 373 
Q 234 822 234 1631 
Q 234 2469 665 2931 
Q 1097 3394 1784 3394 
Q 2450 3394 2872 2941 
Q 3294 2488 3294 1666 
Q 3294 1616 3291 1516 
L 816 1516 
Q 847 969 1125 678 
Q 1403 388 1819 388 
Q 2128 388 2347 550 
Q 2566 713 2694 1069 
z
M 847 1978 
L 2700 1978 
Q 2663 2397 2488 2606 
Q 2219 2931 1791 2931 
Q 1403 2931 1139 2672 
Q 875 2413 847 1978 
z
" transform="scale(0.015625)"/>
       <path id="ArialMT-20" transform="scale(0.015625)"/>
       <path id="ArialMT-76" d="M 1344 0 
L 81 3319 
L 675 3319 
L 1388 1331 
Q 1503 1009 1600 663 
Q 1675 925 1809 1294 
L 2547 3319 
L 3125 3319 
L 1869 0 
L 1344 0 
z
" transform="scale(0.015625)"/>
       <path id="ArialMT-61" d="M 2588 409 
Q 2275 144 1986 34 
Q 1697 -75 1366 -75 
Q 819 -75 525 192 
Q 231 459 231 875 
Q 231 1119 342 1320 
Q 453 1522 633 1644 
Q 813 1766 1038 1828 
Q 1203 1872 1538 1913 
Q 2219 1994 2541 2106 
Q 2544 2222 2544 2253 
Q 2544 2597 2384 2738 
Q 2169 2928 1744 2928 
Q 1347 2928 1158 2789 
Q 969 2650 878 2297 
L 328 2372 
Q 403 2725 575 2942 
Q 747 3159 1072 3276 
Q 1397 3394 1825 3394 
Q 2250 3394 2515 3294 
Q 2781 3194 2906 3042 
Q 3031 2891 3081 2659 
Q 3109 2516 3109 2141 
L 3109 1391 
Q 3109 606 3145 398 
Q 3181 191 3288 0 
L 2700 0 
Q 2613 175 2588 409 
z
M 2541 1666 
Q 2234 1541 1622 1453 
Q 1275 1403 1131 1340 
Q 988 1278 909 1158 
Q 831 1038 831 891 
Q 831 666 1001 516 
Q 1172 366 1500 366 
Q 1825 366 2078 508 
Q 2331 650 2450 897 
Q 2541 1088 2541 1459 
L 2541 1666 
z
" transform="scale(0.015625)"/>
       <path id="ArialMT-6c" d="M 409 0 
L 409 4581 
L 972 4581 
L 972 0 
L 409 0 
z
" transform="scale(0.015625)"/>
       <path id="ArialMT-75" d="M 2597 0 
L 2597 488 
Q 2209 -75 1544 -75 
Q 1250 -75 995 37 
Q 741 150 617 320 
Q 494 491 444 738 
Q 409 903 409 1263 
L 409 3319 
L 972 3319 
L 972 1478 
Q 972 1038 1006 884 
Q 1059 663 1231 536 
Q 1403 409 1656 409 
Q 1909 409 2131 539 
Q 2353 669 2445 892 
Q 2538 1116 2538 1541 
L 2538 3319 
L 3100 3319 
L 3100 0 
L 2597 0 
z
" transform="scale(0.015625)"/>
      </defs>
      <use xlink:href="#ArialMT-65"/>
      <use xlink:href="#ArialMT-65" transform="translate(55.615234 0)"/>
      <use xlink:href="#ArialMT-20" transform="translate(111.230469 0)"/>
      <use xlink:href="#ArialMT-76" transform="translate(139.013672 0)"/>
      <use xlink:href="#ArialMT-61" transform="translate(189.013672 0)"/>
      <use xlink:href="#ArialMT-6c" transform="translate(244.628906 0)"/>
      <use xlink:href="#ArialMT-75" transform="translate(266.845703 0)"/>
      <use xlink:href="#ArialMT-65" transform="translate(322.460938 0)"/>
     </g>
    </g>
   </g>
   <g id="matplotlib.axis_2">
    <g id="ytick_1">
     <g id="line2d_6">
      <path d="M 83.124 301.716 
L 557.856 301.716 
" clip-path="url(#p7f48b33368)" style="fill: none; stroke: #cccccc; stroke-linecap: round"/>
     </g>
     <g id="text_7">
      <!-- 0.000 -->
      <g style="fill: #262626" transform="translate(35.090313 307.227516) scale(0.154 -0.154)">
       <defs>
        <path id="ArialMT-2e" d="M 581 0 
L 581 641 
L 1222 641 
L 1222 0 
L 581 0 
z
" transform="scale(0.015625)"/>
       </defs>
       <use xlink:href="#ArialMT-30"/>
       <use xlink:href="#ArialMT-2e" transform="translate(55.615234 0)"/>
       <use xlink:href="#ArialMT-30" transform="translate(83.398438 0)"/>
       <use xlink:href="#ArialMT-30" transform="translate(139.013672 0)"/>
       <use xlink:href="#ArialMT-30" transform="translate(194.628906 0)"/>
      </g>
     </g>
    </g>
    <g id="ytick_2">
     <g id="line2d_7">
      <path d="M 83.124 267.057193 
L 557.856 267.057193 
" clip-path="url(#p7f48b33368)" style="fill: none; stroke: #cccccc; stroke-linecap: round"/>
     </g>
     <g id="text_8">
      <!-- 0.002 -->
      <g style="fill: #262626" transform="translate(35.090313 272.568709) scale(0.154 -0.154)">
       <defs>
        <path id="ArialMT-32" d="M 3222 541 
L 3222 0 
L 194 0 
Q 188 203 259 391 
Q 375 700 629 1000 
Q 884 1300 1366 1694 
Q 2113 2306 2375 2664 
Q 2638 3022 2638 3341 
Q 2638 3675 2398 3904 
Q 2159 4134 1775 4134 
Q 1369 4134 1125 3890 
Q 881 3647 878 3216 
L 300 3275 
Q 359 3922 746 4261 
Q 1134 4600 1788 4600 
Q 2447 4600 2831 4234 
Q 3216 3869 3216 3328 
Q 3216 3053 3103 2787 
Q 2991 2522 2730 2228 
Q 2469 1934 1863 1422 
Q 1356 997 1212 845 
Q 1069 694 975 541 
L 3222 541 
z
" transform="scale(0.015625)"/>
       </defs>
       <use xlink:href="#ArialMT-30"/>
       <use xlink:href="#ArialMT-2e" transform="translate(55.615234 0)"/>
       <use xlink:href="#ArialMT-30" transform="translate(83.398438 0)"/>
       <use xlink:href="#ArialMT-30" transform="translate(139.013672 0)"/>
       <use xlink:href="#ArialMT-32" transform="translate(194.628906 0)"/>
      </g>
     </g>
    </g>
    <g id="ytick_3">
     <g id="line2d_8">
      <path d="M 83.124 232.398386 
L 557.856 232.398386 
" clip-path="url(#p7f48b33368)" style="fill: none; stroke: #cccccc; stroke-linecap: round"/>
     </g>
     <g id="text_9">
      <!-- 0.004 -->
      <g style="fill: #262626" transform="translate(35.090313 237.909902) scale(0.154 -0.154)">
       <defs>
        <path id="ArialMT-34" d="M 2069 0 
L 2069 1097 
L 81 1097 
L 81 1613 
L 2172 4581 
L 2631 4581 
L 2631 1613 
L 3250 1613 
L 3250 1097 
L 2631 1097 
L 2631 0 
L 2069 0 
z
M 2069 1613 
L 2069 3678 
L 634 1613 
L 2069 1613 
z
" transform="scale(0.015625)"/>
       </defs>
       <use xlink:href="#ArialMT-30"/>
       <use xlink:href="#ArialMT-2e" transform="translate(55.615234 0)"/>
       <use xlink:href="#ArialMT-30" transform="translate(83.398438 0)"/>
       <use xlink:href="#ArialMT-30" transform="translate(139.013672 0)"/>
       <use xlink:href="#ArialMT-34" transform="translate(194.628906 0)"/>
      </g>
     </g>
    </g>
    <g id="ytick_4">
     <g id="line2d_9">
      <path d="M 83.124 197.73958 
L 557.856 197.73958 
" clip-path="url(#p7f48b33368)" style="fill: none; stroke: #cccccc; stroke-linecap: round"/>
     </g>
     <g id="text_10">
      <!-- 0.006 -->
      <g style="fill: #262626" transform="translate(35.090313 203.251095) scale(0.154 -0.154)">
       <defs>
        <path id="ArialMT-36" d="M 3184 3459 
L 2625 3416 
Q 2550 3747 2413 3897 
Q 2184 4138 1850 4138 
Q 1581 4138 1378 3988 
Q 1113 3794 959 3422 
Q 806 3050 800 2363 
Q 1003 2672 1297 2822 
Q 1591 2972 1913 2972 
Q 2475 2972 2870 2558 
Q 3266 2144 3266 1488 
Q 3266 1056 3080 686 
Q 2894 316 2569 119 
Q 2244 -78 1831 -78 
Q 1128 -78 684 439 
Q 241 956 241 2144 
Q 241 3472 731 4075 
Q 1159 4600 1884 4600 
Q 2425 4600 2770 4297 
Q 3116 3994 3184 3459 
z
M 888 1484 
Q 888 1194 1011 928 
Q 1134 663 1356 523 
Q 1578 384 1822 384 
Q 2178 384 2434 671 
Q 2691 959 2691 1453 
Q 2691 1928 2437 2201 
Q 2184 2475 1800 2475 
Q 1419 2475 1153 2201 
Q 888 1928 888 1484 
z
" transform="scale(0.015625)"/>
       </defs>
       <use xlink:href="#ArialMT-30"/>
       <use xlink:href="#ArialMT-2e" transform="translate(55.615234 0)"/>
       <use xlink:href="#ArialMT-30" transform="translate(83.398438 0)"/>
       <use xlink:href="#ArialMT-30" transform="translate(139.013672 0)"/>
       <use xlink:href="#ArialMT-36" transform="translate(194.628906 0)"/>
      </g>
     </g>
    </g>
    <g id="ytick_5">
     <g id="line2d_10">
      <path d="M 83.124 163.080773 
L 557.856 163.080773 
" clip-path="url(#p7f48b33368)" style="fill: none; stroke: #cccccc; stroke-linecap: round"/>
     </g>
     <g id="text_11">
      <!-- 0.008 -->
      <g style="fill: #262626" transform="translate(35.090313 168.592288) scale(0.154 -0.154)">
       <defs>
        <path id="ArialMT-38" d="M 1131 2484 
Q 781 2613 612 2850 
Q 444 3088 444 3419 
Q 444 3919 803 4259 
Q 1163 4600 1759 4600 
Q 2359 4600 2725 4251 
Q 3091 3903 3091 3403 
Q 3091 3084 2923 2848 
Q 2756 2613 2416 2484 
Q 2838 2347 3058 2040 
Q 3278 1734 3278 1309 
Q 3278 722 2862 322 
Q 2447 -78 1769 -78 
Q 1091 -78 675 323 
Q 259 725 259 1325 
Q 259 1772 486 2073 
Q 713 2375 1131 2484 
z
M 1019 3438 
Q 1019 3113 1228 2906 
Q 1438 2700 1772 2700 
Q 2097 2700 2305 2904 
Q 2513 3109 2513 3406 
Q 2513 3716 2298 3927 
Q 2084 4138 1766 4138 
Q 1444 4138 1231 3931 
Q 1019 3725 1019 3438 
z
M 838 1322 
Q 838 1081 952 856 
Q 1066 631 1291 507 
Q 1516 384 1775 384 
Q 2178 384 2440 643 
Q 2703 903 2703 1303 
Q 2703 1709 2433 1975 
Q 2163 2241 1756 2241 
Q 1359 2241 1098 1978 
Q 838 1716 838 1322 
z
" transform="scale(0.015625)"/>
       </defs>
       <use xlink:href="#ArialMT-30"/>
       <use xlink:href="#ArialMT-2e" transform="translate(55.615234 0)"/>
       <use xlink:href="#ArialMT-30" transform="translate(83.398438 0)"/>
       <use xlink:href="#ArialMT-30" transform="translate(139.013672 0)"/>
       <use xlink:href="#ArialMT-38" transform="translate(194.628906 0)"/>
      </g>
     </g>
    </g>
    <g id="ytick_6">
     <g id="line2d_11">
      <path d="M 83.124 128.421966 
L 557.856 128.421966 
" clip-path="url(#p7f48b33368)" style="fill: none; stroke: #cccccc; stroke-linecap: round"/>
     </g>
     <g id="text_12">
      <!-- 0.010 -->
      <g style="fill: #262626" transform="translate(35.090313 133.933482) scale(0.154 -0.154)">
       <use xlink:href="#ArialMT-30"/>
       <use xlink:href="#ArialMT-2e" transform="translate(55.615234 0)"/>
       <use xlink:href="#ArialMT-30" transform="translate(83.398438 0)"/>
       <use xlink:href="#ArialMT-31" transform="translate(139.013672 0)"/>
       <use xlink:href="#ArialMT-30" transform="translate(194.628906 0)"/>
      </g>
     </g>
    </g>
    <g id="ytick_7">
     <g id="line2d_12">
      <path d="M 83.124 93.763159 
L 557.856 93.763159 
" clip-path="url(#p7f48b33368)" style="fill: none; stroke: #cccccc; stroke-linecap: round"/>
     </g>
     <g id="text_13">
      <!-- 0.012 -->
      <g style="fill: #262626" transform="translate(35.090313 99.274675) scale(0.154 -0.154)">
       <use xlink:href="#ArialMT-30"/>
       <use xlink:href="#ArialMT-2e" transform="translate(55.615234 0)"/>
       <use xlink:href="#ArialMT-30" transform="translate(83.398438 0)"/>
       <use xlink:href="#ArialMT-31" transform="translate(139.013672 0)"/>
       <use xlink:href="#ArialMT-32" transform="translate(194.628906 0)"/>
      </g>
     </g>
    </g>
    <g id="ytick_8">
     <g id="line2d_13">
      <path d="M 83.124 59.104352 
L 557.856 59.104352 
" clip-path="url(#p7f48b33368)" style="fill: none; stroke: #cccccc; stroke-linecap: round"/>
     </g>
     <g id="text_14">
      <!-- 0.014 -->
      <g style="fill: #262626" transform="translate(35.090313 64.615868) scale(0.154 -0.154)">
       <use xlink:href="#ArialMT-30"/>
       <use xlink:href="#ArialMT-2e" transform="translate(55.615234 0)"/>
       <use xlink:href="#ArialMT-30" transform="translate(83.398438 0)"/>
       <use xlink:href="#ArialMT-31" transform="translate(139.013672 0)"/>
       <use xlink:href="#ArialMT-34" transform="translate(194.628906 0)"/>
      </g>
     </g>
    </g>
    <g id="text_15">
     <!-- Density -->
     <g style="fill: #262626" transform="translate(28.14375 192.064375) rotate(-90) scale(0.14 -0.14)">
      <defs>
       <path id="ArialMT-44" d="M 494 0 
L 494 4581 
L 2072 4581 
Q 2606 4581 2888 4516 
Q 3281 4425 3559 4188 
Q 3922 3881 4101 3404 
Q 4281 2928 4281 2316 
Q 4281 1794 4159 1391 
Q 4038 988 3847 723 
Q 3656 459 3429 307 
Q 3203 156 2883 78 
Q 2563 0 2147 0 
L 494 0 
z
M 1100 541 
L 2078 541 
Q 2531 541 2789 625 
Q 3047 709 3200 863 
Q 3416 1078 3536 1442 
Q 3656 1806 3656 2325 
Q 3656 3044 3420 3430 
Q 3184 3816 2847 3947 
Q 2603 4041 2063 4041 
L 1100 4041 
L 1100 541 
z
" transform="scale(0.015625)"/>
       <path id="ArialMT-6e" d="M 422 0 
L 422 3319 
L 928 3319 
L 928 2847 
Q 1294 3394 1984 3394 
Q 2284 3394 2536 3286 
Q 2788 3178 2913 3003 
Q 3038 2828 3088 2588 
Q 3119 2431 3119 2041 
L 3119 0 
L 2556 0 
L 2556 2019 
Q 2556 2363 2490 2533 
Q 2425 2703 2258 2804 
Q 2091 2906 1866 2906 
Q 1506 2906 1245 2678 
Q 984 2450 984 1813 
L 984 0 
L 422 0 
z
" transform="scale(0.015625)"/>
       <path id="ArialMT-73" d="M 197 991 
L 753 1078 
Q 800 744 1014 566 
Q 1228 388 1613 388 
Q 2000 388 2187 545 
Q 2375 703 2375 916 
Q 2375 1106 2209 1216 
Q 2094 1291 1634 1406 
Q 1016 1563 777 1677 
Q 538 1791 414 1992 
Q 291 2194 291 2438 
Q 291 2659 392 2848 
Q 494 3038 669 3163 
Q 800 3259 1026 3326 
Q 1253 3394 1513 3394 
Q 1903 3394 2198 3281 
Q 2494 3169 2634 2976 
Q 2775 2784 2828 2463 
L 2278 2388 
Q 2241 2644 2061 2787 
Q 1881 2931 1553 2931 
Q 1166 2931 1000 2803 
Q 834 2675 834 2503 
Q 834 2394 903 2306 
Q 972 2216 1119 2156 
Q 1203 2125 1616 2013 
Q 2213 1853 2448 1751 
Q 2684 1650 2818 1456 
Q 2953 1263 2953 975 
Q 2953 694 2789 445 
Q 2625 197 2315 61 
Q 2006 -75 1616 -75 
Q 969 -75 630 194 
Q 291 463 197 991 
z
" transform="scale(0.015625)"/>
       <path id="ArialMT-69" d="M 425 3934 
L 425 4581 
L 988 4581 
L 988 3934 
L 425 3934 
z
M 425 0 
L 425 3319 
L 988 3319 
L 988 0 
L 425 0 
z
" transform="scale(0.015625)"/>
       <path id="ArialMT-74" d="M 1650 503 
L 1731 6 
Q 1494 -44 1306 -44 
Q 1000 -44 831 53 
Q 663 150 594 308 
Q 525 466 525 972 
L 525 2881 
L 113 2881 
L 113 3319 
L 525 3319 
L 525 4141 
L 1084 4478 
L 1084 3319 
L 1650 3319 
L 1650 2881 
L 1084 2881 
L 1084 941 
Q 1084 700 1114 631 
Q 1144 563 1211 522 
Q 1278 481 1403 481 
Q 1497 481 1650 503 
z
" transform="scale(0.015625)"/>
       <path id="ArialMT-79" d="M 397 -1278 
L 334 -750 
Q 519 -800 656 -800 
Q 844 -800 956 -737 
Q 1069 -675 1141 -563 
Q 1194 -478 1313 -144 
Q 1328 -97 1363 -6 
L 103 3319 
L 709 3319 
L 1400 1397 
Q 1534 1031 1641 628 
Q 1738 1016 1872 1384 
L 2581 3319 
L 3144 3319 
L 1881 -56 
Q 1678 -603 1566 -809 
Q 1416 -1088 1222 -1217 
Q 1028 -1347 759 -1347 
Q 597 -1347 397 -1278 
z
" transform="scale(0.015625)"/>
      </defs>
      <use xlink:href="#ArialMT-44"/>
      <use xlink:href="#ArialMT-65" transform="translate(72.216797 0)"/>
      <use xlink:href="#ArialMT-6e" transform="translate(127.832031 0)"/>
      <use xlink:href="#ArialMT-73" transform="translate(183.447266 0)"/>
      <use xlink:href="#ArialMT-69" transform="translate(233.447266 0)"/>
      <use xlink:href="#ArialMT-74" transform="translate(255.664062 0)"/>
      <use xlink:href="#ArialMT-79" transform="translate(283.447266 0)"/>
     </g>
    </g>
   </g>
   <g id="FillBetweenPolyCollection_1">
    <defs>
     <path id="me97a777a0c" d="M 124.504947 -58.581848 
L 124.504947 -58.284 
L 126.443174 -58.284 
L 128.381401 -58.284 
L 130.319628 -58.284 
L 132.257854 -58.284 
L 134.196081 -58.284 
L 136.134308 -58.284 
L 138.072534 -58.284 
L 140.010761 -58.284 
L 141.948988 -58.284 
L 143.887214 -58.284 
L 145.825441 -58.284 
L 147.763668 -58.284 
L 149.701895 -58.284 
L 151.640121 -58.284 
L 153.578348 -58.284 
L 155.516575 -58.284 
L 157.454801 -58.284 
L 159.393028 -58.284 
L 161.331255 -58.284 
L 163.269481 -58.284 
L 165.207708 -58.284 
L 167.145935 -58.284 
L 169.084162 -58.284 
L 171.022388 -58.284 
L 172.960615 -58.284 
L 174.898842 -58.284 
L 176.837068 -58.284 
L 178.775295 -58.284 
L 180.713522 -58.284 
L 182.651748 -58.284 
L 184.589975 -58.284 
L 186.528202 -58.284 
L 188.466429 -58.284 
L 190.404655 -58.284 
L 192.342882 -58.284 
L 194.281109 -58.284 
L 196.219335 -58.284 
L 198.157562 -58.284 
L 200.095789 -58.284 
L 202.034015 -58.284 
L 203.972242 -58.284 
L 205.910469 -58.284 
L 207.848696 -58.284 
L 209.786922 -58.284 
L 211.725149 -58.284 
L 213.663376 -58.284 
L 215.601602 -58.284 
L 217.539829 -58.284 
L 219.478056 -58.284 
L 221.416282 -58.284 
L 223.354509 -58.284 
L 225.292736 -58.284 
L 227.230963 -58.284 
L 229.169189 -58.284 
L 231.107416 -58.284 
L 233.045643 -58.284 
L 234.983869 -58.284 
L 236.922096 -58.284 
L 238.860323 -58.284 
L 240.798549 -58.284 
L 242.736776 -58.284 
L 244.675003 -58.284 
L 246.61323 -58.284 
L 248.551456 -58.284 
L 250.489683 -58.284 
L 252.42791 -58.284 
L 254.366136 -58.284 
L 256.304363 -58.284 
L 258.24259 -58.284 
L 260.180816 -58.284 
L 262.119043 -58.284 
L 264.05727 -58.284 
L 265.995497 -58.284 
L 267.933723 -58.284 
L 269.87195 -58.284 
L 271.810177 -58.284 
L 273.748403 -58.284 
L 275.68663 -58.284 
L 277.624857 -58.284 
L 279.563083 -58.284 
L 281.50131 -58.284 
L 283.439537 -58.284 
L 285.377764 -58.284 
L 287.31599 -58.284 
L 289.254217 -58.284 
L 291.192444 -58.284 
L 293.13067 -58.284 
L 295.068897 -58.284 
L 297.007124 -58.284 
L 298.94535 -58.284 
L 300.883577 -58.284 
L 302.821804 -58.284 
L 304.760031 -58.284 
L 306.698257 -58.284 
L 308.636484 -58.284 
L 310.574711 -58.284 
L 312.512937 -58.284 
L 314.451164 -58.284 
L 316.389391 -58.284 
L 318.327618 -58.284 
L 320.265844 -58.284 
L 322.204071 -58.284 
L 324.142298 -58.284 
L 326.080524 -58.284 
L 328.018751 -58.284 
L 329.956978 -58.284 
L 331.895204 -58.284 
L 333.833431 -58.284 
L 335.771658 -58.284 
L 337.709885 -58.284 
L 339.648111 -58.284 
L 341.586338 -58.284 
L 343.524565 -58.284 
L 345.462791 -58.284 
L 347.401018 -58.284 
L 349.339245 -58.284 
L 351.277471 -58.284 
L 353.215698 -58.284 
L 355.153925 -58.284 
L 357.092152 -58.284 
L 359.030378 -58.284 
L 360.968605 -58.284 
L 362.906832 -58.284 
L 364.845058 -58.284 
L 366.783285 -58.284 
L 368.721512 -58.284 
L 370.659738 -58.284 
L 372.597965 -58.284 
L 374.536192 -58.284 
L 376.474419 -58.284 
L 378.412645 -58.284 
L 380.350872 -58.284 
L 382.289099 -58.284 
L 384.227325 -58.284 
L 386.165552 -58.284 
L 388.103779 -58.284 
L 390.042005 -58.284 
L 391.980232 -58.284 
L 393.918459 -58.284 
L 395.856686 -58.284 
L 397.794912 -58.284 
L 399.733139 -58.284 
L 401.671366 -58.284 
L 403.609592 -58.284 
L 405.547819 -58.284 
L 407.486046 -58.284 
L 409.424272 -58.284 
L 411.362499 -58.284 
L 413.300726 -58.284 
L 415.238953 -58.284 
L 417.177179 -58.284 
L 419.115406 -58.284 
L 421.053633 -58.284 
L 422.991859 -58.284 
L 424.930086 -58.284 
L 426.868313 -58.284 
L 428.806539 -58.284 
L 430.744766 -58.284 
L 432.682993 -58.284 
L 434.62122 -58.284 
L 436.559446 -58.284 
L 438.497673 -58.284 
L 440.4359 -58.284 
L 442.374126 -58.284 
L 444.312353 -58.284 
L 446.25058 -58.284 
L 448.188806 -58.284 
L 450.127033 -58.284 
L 452.06526 -58.284 
L 454.003487 -58.284 
L 455.941713 -58.284 
L 457.87994 -58.284 
L 459.818167 -58.284 
L 461.756393 -58.284 
L 463.69462 -58.284 
L 465.632847 -58.284 
L 467.571073 -58.284 
L 469.5093 -58.284 
L 471.447527 -58.284 
L 473.385754 -58.284 
L 475.32398 -58.284 
L 477.262207 -58.284 
L 479.200434 -58.284 
L 481.13866 -58.284 
L 483.076887 -58.284 
L 485.015114 -58.284 
L 486.95334 -58.284 
L 488.891567 -58.284 
L 490.829794 -58.284 
L 492.768021 -58.284 
L 494.706247 -58.284 
L 496.644474 -58.284 
L 498.582701 -58.284 
L 500.520927 -58.284 
L 502.459154 -58.284 
L 504.397381 -58.284 
L 506.335607 -58.284 
L 508.273834 -58.284 
L 510.212061 -58.284 
L 510.212061 -59.217364 
L 510.212061 -59.217364 
L 508.273834 -59.43311 
L 506.335607 -59.69299 
L 504.397381 -60.004642 
L 502.459154 -60.376719 
L 500.520927 -60.818956 
L 498.582701 -61.342233 
L 496.644474 -61.958622 
L 494.706247 -62.681423 
L 492.768021 -63.525181 
L 490.829794 -64.50567 
L 488.891567 -65.639861 
L 486.95334 -66.945851 
L 485.015114 -68.442757 
L 483.076887 -70.150571 
L 481.13866 -72.089972 
L 479.200434 -74.282092 
L 477.262207 -76.74824 
L 475.32398 -79.509571 
L 473.385754 -82.586723 
L 471.447527 -85.999399 
L 469.5093 -89.765924 
L 467.571073 -93.902759 
L 465.632847 -98.424004 
L 463.69462 -103.34088 
L 461.756393 -108.661211 
L 459.818167 -114.388924 
L 457.87994 -120.523562 
L 455.941713 -127.059852 
L 454.003487 -133.987317 
L 452.06526 -141.289963 
L 450.127033 -148.946055 
L 448.188806 -156.927983 
L 446.25058 -165.202246 
L 444.312353 -173.729553 
L 442.374126 -182.465044 
L 440.4359 -191.358653 
L 438.497673 -200.355588 
L 436.559446 -209.396941 
L 434.62122 -218.420418 
L 432.682993 -227.36117 
L 430.744766 -236.152718 
L 428.806539 -244.727945 
L 426.868313 -253.020145 
L 424.930086 -260.964089 
L 422.991859 -268.4971 
L 421.053633 -275.560098 
L 419.115406 -282.098595 
L 417.177179 -288.063611 
L 415.238953 -293.412493 
L 413.300726 -298.10961 
L 411.362499 -302.126912 
L 409.424272 -305.444335 
L 407.486046 -308.050047 
L 405.547819 -309.940526 
L 403.609592 -311.120475 
L 401.671366 -311.602571 
L 399.733139 -311.407074 
L 397.794912 -310.561282 
L 395.856686 -309.098882 
L 393.918459 -307.059185 
L 391.980232 -304.486293 
L 390.042005 -301.428206 
L 388.103779 -297.935893 
L 386.165552 -294.06236 
L 384.227325 -289.861728 
L 382.289099 -285.388347 
L 380.350872 -280.69596 
L 378.412645 -275.836935 
L 376.474419 -270.861585 
L 374.536192 -265.817562 
L 372.597965 -260.749367 
L 370.659738 -255.697941 
L 368.721512 -250.700366 
L 366.783285 -245.789658 
L 364.845058 -240.994652 
L 362.906832 -236.339971 
L 360.968605 -231.846071 
L 359.030378 -227.529355 
L 357.092152 -223.402339 
L 355.153925 -219.473869 
L 353.215698 -215.749373 
L 351.277471 -212.231142 
L 349.339245 -208.91863 
L 347.401018 -205.808762 
L 345.462791 -202.896251 
L 343.524565 -200.173909 
L 341.586338 -197.632955 
L 339.648111 -195.263314 
L 337.709885 -193.053894 
L 335.771658 -190.99286 
L 333.833431 -189.06788 
L 331.895204 -187.266356 
L 329.956978 -185.575638 
L 328.018751 -183.983211 
L 326.080524 -182.47687 
L 324.142298 -181.044864 
L 322.204071 -179.676031 
L 320.265844 -178.3599 
L 318.327618 -177.086783 
L 316.389391 -175.847835 
L 314.451164 -174.635111 
L 312.512937 -173.441582 
L 310.574711 -172.261155 
L 308.636484 -171.088657 
L 306.698257 -169.919817 
L 304.760031 -168.751225 
L 302.821804 -167.580286 
L 300.883577 -166.405154 
L 298.94535 -165.22467 
L 297.007124 -164.03828 
L 295.068897 -162.845963 
L 293.13067 -161.648147 
L 291.192444 -160.445627 
L 289.254217 -159.239488 
L 287.31599 -158.031031 
L 285.377764 -156.821693 
L 283.439537 -155.612988 
L 281.50131 -154.406441 
L 279.563083 -153.203534 
L 277.624857 -152.005652 
L 275.68663 -150.814041 
L 273.748403 -149.629762 
L 271.810177 -148.453662 
L 269.87195 -147.286333 
L 267.933723 -146.128087 
L 265.995497 -144.97893 
L 264.05727 -143.838532 
L 262.119043 -142.706216 
L 260.180816 -141.58093 
L 258.24259 -140.461242 
L 256.304363 -139.345331 
L 254.366136 -138.230978 
L 252.42791 -137.11558 
L 250.489683 -135.996156 
L 248.551456 -134.869376 
L 246.61323 -133.731588 
L 244.675003 -132.578867 
L 242.736776 -131.407065 
L 240.798549 -130.211884 
L 238.860323 -128.98895 
L 236.922096 -127.733899 
L 234.983869 -126.442476 
L 233.045643 -125.110636 
L 231.107416 -123.734647 
L 229.169189 -122.3112 
L 227.230963 -120.837513 
L 225.292736 -119.311428 
L 223.354509 -117.731506 
L 221.416282 -116.097103 
L 219.478056 -114.408437 
L 217.539829 -112.666632 
L 215.601602 -110.87375 
L 213.663376 -109.032797 
L 211.725149 -107.147707 
L 209.786922 -105.22331 
L 207.848696 -103.265268 
L 205.910469 -101.280005 
L 203.972242 -99.274604 
L 202.034015 -97.2567 
L 200.095789 -95.234352 
L 198.157562 -93.215912 
L 196.219335 -91.20988 
L 194.281109 -89.224767 
L 192.342882 -87.26895 
L 190.404655 -85.350538 
L 188.466429 -83.477242 
L 186.528202 -81.656263 
L 184.589975 -79.894187 
L 182.651748 -78.196901 
L 180.713522 -76.569523 
L 178.775295 -75.016353 
L 176.837068 -73.540842 
L 174.898842 -72.145577 
L 172.960615 -70.832291 
L 171.022388 -69.60188 
L 169.084162 -68.45444 
L 167.145935 -67.389317 
L 165.207708 -66.405168 
L 163.269481 -65.50003 
L 161.331255 -64.671391 
L 159.393028 -63.916274 
L 157.454801 -63.231316 
L 155.516575 -62.612844 
L 153.578348 -62.056962 
L 151.640121 -61.559617 
L 149.701895 -61.116676 
L 147.763668 -60.723982 
L 145.825441 -60.377419 
L 143.887214 -60.072954 
L 141.948988 -59.806685 
L 140.010761 -59.574874 
L 138.072534 -59.373972 
L 136.134308 -59.200642 
L 134.196081 -59.051773 
L 132.257854 -58.924488 
L 130.319628 -58.816144 
L 128.381401 -58.724337 
L 126.443174 -58.64689 
L 124.504947 -58.581848 
z
" style="stroke: #1f77b4; stroke-width: 2"/>
    </defs>
    <g clip-path="url(#p7f48b33368)">
     <use xlink:href="#me97a777a0c" x="0" y="360" style="fill: #1f77b4; fill-opacity: 0.3; stroke: #1f77b4; stroke-width: 2"/>
    </g>
   </g>
   <g id="FillBetweenPolyCollection_2">
    <defs>
     <path id="m07fe00a0ea" d="M 104.702727 -58.724015 
L 104.702727 -58.284 
L 106.871444 -58.284 
L 109.04016 -58.284 
L 111.208876 -58.284 
L 113.377593 -58.284 
L 115.546309 -58.284 
L 117.715025 -58.284 
L 119.883741 -58.284 
L 122.052458 -58.284 
L 124.221174 -58.284 
L 126.38989 -58.284 
L 128.558607 -58.284 
L 130.727323 -58.284 
L 132.896039 -58.284 
L 135.064756 -58.284 
L 137.233472 -58.284 
L 139.402188 -58.284 
L 141.570905 -58.284 
L 143.739621 -58.284 
L 145.908337 -58.284 
L 148.077053 -58.284 
L 150.24577 -58.284 
L 152.414486 -58.284 
L 154.583202 -58.284 
L 156.751919 -58.284 
L 158.920635 -58.284 
L 161.089351 -58.284 
L 163.258068 -58.284 
L 165.426784 -58.284 
L 167.5955 -58.284 
L 169.764217 -58.284 
L 171.932933 -58.284 
L 174.101649 -58.284 
L 176.270365 -58.284 
L 178.439082 -58.284 
L 180.607798 -58.284 
L 182.776514 -58.284 
L 184.945231 -58.284 
L 187.113947 -58.284 
L 189.282663 -58.284 
L 191.45138 -58.284 
L 193.620096 -58.284 
L 195.788812 -58.284 
L 197.957529 -58.284 
L 200.126245 -58.284 
L 202.294961 -58.284 
L 204.463677 -58.284 
L 206.632394 -58.284 
L 208.80111 -58.284 
L 210.969826 -58.284 
L 213.138543 -58.284 
L 215.307259 -58.284 
L 217.475975 -58.284 
L 219.644692 -58.284 
L 221.813408 -58.284 
L 223.982124 -58.284 
L 226.150841 -58.284 
L 228.319557 -58.284 
L 230.488273 -58.284 
L 232.656989 -58.284 
L 234.825706 -58.284 
L 236.994422 -58.284 
L 239.163138 -58.284 
L 241.331855 -58.284 
L 243.500571 -58.284 
L 245.669287 -58.284 
L 247.838004 -58.284 
L 250.00672 -58.284 
L 252.175436 -58.284 
L 254.344153 -58.284 
L 256.512869 -58.284 
L 258.681585 -58.284 
L 260.850302 -58.284 
L 263.019018 -58.284 
L 265.187734 -58.284 
L 267.35645 -58.284 
L 269.525167 -58.284 
L 271.693883 -58.284 
L 273.862599 -58.284 
L 276.031316 -58.284 
L 278.200032 -58.284 
L 280.368748 -58.284 
L 282.537465 -58.284 
L 284.706181 -58.284 
L 286.874897 -58.284 
L 289.043614 -58.284 
L 291.21233 -58.284 
L 293.381046 -58.284 
L 295.549762 -58.284 
L 297.718479 -58.284 
L 299.887195 -58.284 
L 302.055911 -58.284 
L 304.224628 -58.284 
L 306.393344 -58.284 
L 308.56206 -58.284 
L 310.730777 -58.284 
L 312.899493 -58.284 
L 315.068209 -58.284 
L 317.236926 -58.284 
L 319.405642 -58.284 
L 321.574358 -58.284 
L 323.743074 -58.284 
L 325.911791 -58.284 
L 328.080507 -58.284 
L 330.249223 -58.284 
L 332.41794 -58.284 
L 334.586656 -58.284 
L 336.755372 -58.284 
L 338.924089 -58.284 
L 341.092805 -58.284 
L 343.261521 -58.284 
L 345.430238 -58.284 
L 347.598954 -58.284 
L 349.76767 -58.284 
L 351.936386 -58.284 
L 354.105103 -58.284 
L 356.273819 -58.284 
L 358.442535 -58.284 
L 360.611252 -58.284 
L 362.779968 -58.284 
L 364.948684 -58.284 
L 367.117401 -58.284 
L 369.286117 -58.284 
L 371.454833 -58.284 
L 373.62355 -58.284 
L 375.792266 -58.284 
L 377.960982 -58.284 
L 380.129698 -58.284 
L 382.298415 -58.284 
L 384.467131 -58.284 
L 386.635847 -58.284 
L 388.804564 -58.284 
L 390.97328 -58.284 
L 393.141996 -58.284 
L 395.310713 -58.284 
L 397.479429 -58.284 
L 399.648145 -58.284 
L 401.816862 -58.284 
L 403.985578 -58.284 
L 406.154294 -58.284 
L 408.323011 -58.284 
L 410.491727 -58.284 
L 412.660443 -58.284 
L 414.829159 -58.284 
L 416.997876 -58.284 
L 419.166592 -58.284 
L 421.335308 -58.284 
L 423.504025 -58.284 
L 425.672741 -58.284 
L 427.841457 -58.284 
L 430.010174 -58.284 
L 432.17889 -58.284 
L 434.347606 -58.284 
L 436.516323 -58.284 
L 438.685039 -58.284 
L 440.853755 -58.284 
L 443.022471 -58.284 
L 445.191188 -58.284 
L 447.359904 -58.284 
L 449.52862 -58.284 
L 451.697337 -58.284 
L 453.866053 -58.284 
L 456.034769 -58.284 
L 458.203486 -58.284 
L 460.372202 -58.284 
L 462.540918 -58.284 
L 464.709635 -58.284 
L 466.878351 -58.284 
L 469.047067 -58.284 
L 471.215783 -58.284 
L 473.3845 -58.284 
L 475.553216 -58.284 
L 477.721932 -58.284 
L 479.890649 -58.284 
L 482.059365 -58.284 
L 484.228081 -58.284 
L 486.396798 -58.284 
L 488.565514 -58.284 
L 490.73423 -58.284 
L 492.902947 -58.284 
L 495.071663 -58.284 
L 497.240379 -58.284 
L 499.409095 -58.284 
L 501.577812 -58.284 
L 503.746528 -58.284 
L 505.915244 -58.284 
L 508.083961 -58.284 
L 510.252677 -58.284 
L 512.421393 -58.284 
L 514.59011 -58.284 
L 516.758826 -58.284 
L 518.927542 -58.284 
L 521.096259 -58.284 
L 523.264975 -58.284 
L 525.433691 -58.284 
L 527.602407 -58.284 
L 529.771124 -58.284 
L 531.93984 -58.284 
L 534.108556 -58.284 
L 536.277273 -58.284 
L 536.277273 -59.07345 
L 536.277273 -59.07345 
L 534.108556 -59.219276 
L 531.93984 -59.389103 
L 529.771124 -59.586314 
L 527.602407 -59.814662 
L 525.433691 -60.078303 
L 523.264975 -60.381811 
L 521.096259 -60.730204 
L 518.927542 -61.128961 
L 516.758826 -61.584037 
L 514.59011 -62.101876 
L 512.421393 -62.689415 
L 510.252677 -63.354089 
L 508.083961 -64.103821 
L 505.915244 -64.947011 
L 503.746528 -65.892517 
L 501.577812 -66.949622 
L 499.409095 -68.127992 
L 497.240379 -69.43763 
L 495.071663 -70.88881 
L 492.902947 -72.492008 
L 490.73423 -74.257808 
L 488.565514 -76.196814 
L 486.396798 -78.319532 
L 484.228081 -80.636255 
L 482.059365 -83.156922 
L 479.890649 -85.890985 
L 477.721932 -88.847246 
L 475.553216 -92.033705 
L 473.3845 -95.457387 
L 471.215783 -99.124177 
L 469.047067 -103.038643 
L 466.878351 -107.203865 
L 464.709635 -111.621267 
L 462.540918 -116.290455 
L 460.372202 -121.209066 
L 458.203486 -126.372623 
L 456.034769 -131.774416 
L 453.866053 -137.405396 
L 451.697337 -143.254094 
L 449.52862 -149.306562 
L 447.359904 -155.54635 
L 445.191188 -161.954502 
L 443.022471 -168.5096 
L 440.853755 -175.18783 
L 438.685039 -181.963091 
L 436.516323 -188.807135 
L 434.347606 -195.689753 
L 432.17889 -202.578985 
L 430.010174 -209.441375 
L 427.841457 -216.24225 
L 425.672741 -222.946036 
L 423.504025 -229.516592 
L 421.335308 -235.917576 
L 419.166592 -242.11282 
L 416.997876 -248.066722 
L 414.829159 -253.744641 
L 412.660443 -259.113297 
L 410.491727 -264.141162 
L 408.323011 -268.798838 
L 406.154294 -273.059422 
L 403.985578 -276.89884 
L 401.816862 -280.296151 
L 399.648145 -283.233822 
L 397.479429 -285.697951 
L 395.310713 -287.678451 
L 393.141996 -289.169182 
L 390.97328 -290.168032 
L 388.804564 -290.67694 
L 386.635847 -290.701871 
L 384.467131 -290.252723 
L 382.298415 -289.343195 
L 380.129698 -287.990586 
L 377.960982 -286.215561 
L 375.792266 -284.041861 
L 373.62355 -281.49597 
L 371.454833 -278.606762 
L 369.286117 -275.405098 
L 367.117401 -271.923423 
L 364.948684 -268.195328 
L 362.779968 -264.25512 
L 360.611252 -260.137384 
L 358.442535 -255.876552 
L 356.273819 -251.506492 
L 354.105103 -247.060113 
L 351.936386 -242.569001 
L 349.76767 -238.063085 
L 347.598954 -233.570345 
L 345.430238 -229.116557 
L 343.261521 -224.725091 
L 341.092805 -220.416745 
L 338.924089 -216.20964 
L 336.755372 -212.119154 
L 334.586656 -208.157907 
L 332.41794 -204.335793 
L 330.249223 -200.660055 
L 328.080507 -197.1354 
L 325.911791 -193.764142 
L 323.743074 -190.546393 
L 321.574358 -187.480262 
L 319.405642 -184.562083 
L 317.236926 -181.786658 
L 315.068209 -179.147507 
L 312.899493 -176.637117 
L 310.730777 -174.247199 
L 308.56206 -171.968925 
L 306.393344 -169.793164 
L 304.224628 -167.71069 
L 302.055911 -165.712385 
L 299.887195 -163.789402 
L 297.718479 -161.933318 
L 295.549762 -160.136248 
L 293.381046 -158.390942 
L 291.21233 -156.690845 
L 289.043614 -155.030141 
L 286.874897 -153.40376 
L 284.706181 -151.807369 
L 282.537465 -150.23734 
L 280.368748 -148.690698 
L 278.200032 -147.165057 
L 276.031316 -145.658538 
L 273.862599 -144.169686 
L 271.693883 -142.697375 
L 269.525167 -141.240718 
L 267.35645 -139.798973 
L 265.187734 -138.371454 
L 263.019018 -136.957457 
L 260.850302 -135.556183 
L 258.681585 -134.166688 
L 256.512869 -132.787829 
L 254.344153 -131.418239 
L 252.175436 -130.056311 
L 250.00672 -128.70019 
L 247.838004 -127.347795 
L 245.669287 -125.996834 
L 243.500571 -124.64485 
L 241.331855 -123.289266 
L 239.163138 -121.92744 
L 236.994422 -120.556729 
L 234.825706 -119.17456 
L 232.656989 -117.778493 
L 230.488273 -116.366295 
L 228.319557 -114.936004 
L 226.150841 -113.485993 
L 223.982124 -112.015024 
L 221.813408 -110.522297 
L 219.644692 -109.007489 
L 217.475975 -107.470782 
L 215.307259 -105.912878 
L 213.138543 -104.33501 
L 210.969826 -102.73893 
L 208.80111 -101.126897 
L 206.632394 -99.501646 
L 204.463677 -97.866353 
L 202.294961 -96.224588 
L 200.126245 -94.580261 
L 197.957529 -92.937562 
L 195.788812 -91.300897 
L 193.620096 -89.674819 
L 191.45138 -88.063961 
L 189.282663 -86.472964 
L 187.113947 -84.906414 
L 184.945231 -83.368773 
L 182.776514 -81.864319 
L 180.607798 -80.397091 
L 178.439082 -78.970844 
L 176.270365 -77.588997 
L 174.101649 -76.254609 
L 171.932933 -74.970341 
L 169.764217 -73.738444 
L 167.5955 -72.56074 
L 165.426784 -71.438625 
L 163.258068 -70.373064 
L 161.089351 -69.364602 
L 158.920635 -68.413381 
L 156.751919 -67.519158 
L 154.583202 -66.681327 
L 152.414486 -65.898953 
L 150.24577 -65.170797 
L 148.077053 -64.495352 
L 145.908337 -63.870879 
L 143.739621 -63.295437 
L 141.570905 -62.766923 
L 139.402188 -62.283103 
L 137.233472 -61.841649 
L 135.064756 -61.440163 
L 132.896039 -61.076217 
L 130.727323 -60.747369 
L 128.558607 -60.451195 
L 126.38989 -60.185309 
L 124.221174 -59.94738 
L 122.052458 -59.73515 
L 119.883741 -59.54645 
L 117.715025 -59.379203 
L 115.546309 -59.231443 
L 113.377593 -59.101312 
L 111.208876 -58.987068 
L 109.04016 -58.887089 
L 106.871444 -58.799868 
L 104.702727 -58.724015 
z
" style="stroke: #ff7f0e; stroke-width: 2"/>
    </defs>
    <g clip-path="url(#p7f48b33368)">
     <use xlink:href="#m07fe00a0ea" x="0" y="360" style="fill: #ff7f0e; fill-opacity: 0.3; stroke: #ff7f0e; stroke-width: 2"/>
    </g>
   </g>
   <g id="patch_3">
    <path d="M 83.124 301.716 
L 83.124 35.7315 
" style="fill: none; stroke: #cccccc; stroke-width: 1.25; stroke-linejoin: miter; stroke-linecap: square"/>
   </g>
   <g id="patch_4">
    <path d="M 557.856 301.716 
L 557.856 35.7315 
" style="fill: none; stroke: #cccccc; stroke-width: 1.25; stroke-linejoin: miter; stroke-linecap: square"/>
   </g>
   <g id="patch_5">
    <path d="M 83.124 301.716 
L 557.856 301.716 
" style="fill: none; stroke: #cccccc; stroke-width: 1.25; stroke-linejoin: miter; stroke-linecap: square"/>
   </g>
   <g id="patch_6">
    <path d="M 83.124 35.7315 
L 557.856 35.7315 
" style="fill: none; stroke: #cccccc; stroke-width: 1.25; stroke-linejoin: miter; stroke-linecap: square"/>
   </g>
   <g id="text_16">
    <!-- Comparison of the Representativeness of the "ee" Feature -->
    <g style="fill: #262626" transform="translate(113.37625 29.7315) scale(0.16 -0.16)">
     <defs>
      <path id="ArialMT-43" d="M 3763 1606 
L 4369 1453 
Q 4178 706 3683 314 
Q 3188 -78 2472 -78 
Q 1731 -78 1267 223 
Q 803 525 561 1097 
Q 319 1669 319 2325 
Q 319 3041 592 3573 
Q 866 4106 1370 4382 
Q 1875 4659 2481 4659 
Q 3169 4659 3637 4309 
Q 4106 3959 4291 3325 
L 3694 3184 
Q 3534 3684 3231 3912 
Q 2928 4141 2469 4141 
Q 1941 4141 1586 3887 
Q 1231 3634 1087 3207 
Q 944 2781 944 2328 
Q 944 1744 1114 1308 
Q 1284 872 1643 656 
Q 2003 441 2422 441 
Q 2931 441 3284 734 
Q 3638 1028 3763 1606 
z
" transform="scale(0.015625)"/>
      <path id="ArialMT-6f" d="M 213 1659 
Q 213 2581 725 3025 
Q 1153 3394 1769 3394 
Q 2453 3394 2887 2945 
Q 3322 2497 3322 1706 
Q 3322 1066 3130 698 
Q 2938 331 2570 128 
Q 2203 -75 1769 -75 
Q 1072 -75 642 372 
Q 213 819 213 1659 
z
M 791 1659 
Q 791 1022 1069 705 
Q 1347 388 1769 388 
Q 2188 388 2466 706 
Q 2744 1025 2744 1678 
Q 2744 2294 2464 2611 
Q 2184 2928 1769 2928 
Q 1347 2928 1069 2612 
Q 791 2297 791 1659 
z
" transform="scale(0.015625)"/>
      <path id="ArialMT-6d" d="M 422 0 
L 422 3319 
L 925 3319 
L 925 2853 
Q 1081 3097 1340 3245 
Q 1600 3394 1931 3394 
Q 2300 3394 2536 3241 
Q 2772 3088 2869 2813 
Q 3263 3394 3894 3394 
Q 4388 3394 4653 3120 
Q 4919 2847 4919 2278 
L 4919 0 
L 4359 0 
L 4359 2091 
Q 4359 2428 4304 2576 
Q 4250 2725 4106 2815 
Q 3963 2906 3769 2906 
Q 3419 2906 3187 2673 
Q 2956 2441 2956 1928 
L 2956 0 
L 2394 0 
L 2394 2156 
Q 2394 2531 2256 2718 
Q 2119 2906 1806 2906 
Q 1569 2906 1367 2781 
Q 1166 2656 1075 2415 
Q 984 2175 984 1722 
L 984 0 
L 422 0 
z
" transform="scale(0.015625)"/>
      <path id="ArialMT-70" d="M 422 -1272 
L 422 3319 
L 934 3319 
L 934 2888 
Q 1116 3141 1344 3267 
Q 1572 3394 1897 3394 
Q 2322 3394 2647 3175 
Q 2972 2956 3137 2557 
Q 3303 2159 3303 1684 
Q 3303 1175 3120 767 
Q 2938 359 2589 142 
Q 2241 -75 1856 -75 
Q 1575 -75 1351 44 
Q 1128 163 984 344 
L 984 -1272 
L 422 -1272 
z
M 931 1641 
Q 931 1000 1190 694 
Q 1450 388 1819 388 
Q 2194 388 2461 705 
Q 2728 1022 2728 1688 
Q 2728 2322 2467 2637 
Q 2206 2953 1844 2953 
Q 1484 2953 1207 2617 
Q 931 2281 931 1641 
z
" transform="scale(0.015625)"/>
      <path id="ArialMT-72" d="M 416 0 
L 416 3319 
L 922 3319 
L 922 2816 
Q 1116 3169 1280 3281 
Q 1444 3394 1641 3394 
Q 1925 3394 2219 3213 
L 2025 2691 
Q 1819 2813 1613 2813 
Q 1428 2813 1281 2702 
Q 1134 2591 1072 2394 
Q 978 2094 978 1738 
L 978 0 
L 416 0 
z
" transform="scale(0.015625)"/>
      <path id="ArialMT-66" d="M 556 0 
L 556 2881 
L 59 2881 
L 59 3319 
L 556 3319 
L 556 3672 
Q 556 4006 616 4169 
Q 697 4388 901 4523 
Q 1106 4659 1475 4659 
Q 1713 4659 2000 4603 
L 1916 4113 
Q 1741 4144 1584 4144 
Q 1328 4144 1222 4034 
Q 1116 3925 1116 3625 
L 1116 3319 
L 1763 3319 
L 1763 2881 
L 1116 2881 
L 1116 0 
L 556 0 
z
" transform="scale(0.015625)"/>
      <path id="ArialMT-68" d="M 422 0 
L 422 4581 
L 984 4581 
L 984 2938 
Q 1378 3394 1978 3394 
Q 2347 3394 2619 3248 
Q 2891 3103 3008 2847 
Q 3125 2591 3125 2103 
L 3125 0 
L 2563 0 
L 2563 2103 
Q 2563 2525 2380 2717 
Q 2197 2909 1863 2909 
Q 1613 2909 1392 2779 
Q 1172 2650 1078 2428 
Q 984 2206 984 1816 
L 984 0 
L 422 0 
z
" transform="scale(0.015625)"/>
      <path id="ArialMT-52" d="M 503 0 
L 503 4581 
L 2534 4581 
Q 3147 4581 3465 4457 
Q 3784 4334 3975 4021 
Q 4166 3709 4166 3331 
Q 4166 2844 3850 2509 
Q 3534 2175 2875 2084 
Q 3116 1969 3241 1856 
Q 3506 1613 3744 1247 
L 4541 0 
L 3778 0 
L 3172 953 
Q 2906 1366 2734 1584 
Q 2563 1803 2427 1890 
Q 2291 1978 2150 2013 
Q 2047 2034 1813 2034 
L 1109 2034 
L 1109 0 
L 503 0 
z
M 1109 2559 
L 2413 2559 
Q 2828 2559 3062 2645 
Q 3297 2731 3419 2920 
Q 3541 3109 3541 3331 
Q 3541 3656 3305 3865 
Q 3069 4075 2559 4075 
L 1109 4075 
L 1109 2559 
z
" transform="scale(0.015625)"/>
      <path id="ArialMT-22" d="M 450 2959 
L 294 3831 
L 294 4581 
L 934 4581 
L 934 3831 
L 794 2959 
L 450 2959 
z
M 1484 2959 
L 1331 3831 
L 1331 4581 
L 1972 4581 
L 1972 3831 
L 1822 2959 
L 1484 2959 
z
" transform="scale(0.015625)"/>
      <path id="ArialMT-46" d="M 525 0 
L 525 4581 
L 3616 4581 
L 3616 4041 
L 1131 4041 
L 1131 2622 
L 3281 2622 
L 3281 2081 
L 1131 2081 
L 1131 0 
L 525 0 
z
" transform="scale(0.015625)"/>
     </defs>
     <use xlink:href="#ArialMT-43"/>
     <use xlink:href="#ArialMT-6f" transform="translate(72.216797 0)"/>
     <use xlink:href="#ArialMT-6d" transform="translate(127.832031 0)"/>
     <use xlink:href="#ArialMT-70" transform="translate(211.132812 0)"/>
     <use xlink:href="#ArialMT-61" transform="translate(266.748047 0)"/>
     <use xlink:href="#ArialMT-72" transform="translate(322.363281 0)"/>
     <use xlink:href="#ArialMT-69" transform="translate(355.664062 0)"/>
     <use xlink:href="#ArialMT-73" transform="translate(377.880859 0)"/>
     <use xlink:href="#ArialMT-6f" transform="translate(427.880859 0)"/>
     <use xlink:href="#ArialMT-6e" transform="translate(483.496094 0)"/>
     <use xlink:href="#ArialMT-20" transform="translate(539.111328 0)"/>
     <use xlink:href="#ArialMT-6f" transform="translate(566.894531 0)"/>
     <use xlink:href="#ArialMT-66" transform="translate(622.509766 0)"/>
     <use xlink:href="#ArialMT-20" transform="translate(650.292969 0)"/>
     <use xlink:href="#ArialMT-74" transform="translate(678.076172 0)"/>
     <use xlink:href="#ArialMT-68" transform="translate(705.859375 0)"/>
     <use xlink:href="#ArialMT-65" transform="translate(761.474609 0)"/>
     <use xlink:href="#ArialMT-20" transform="translate(817.089844 0)"/>
     <use xlink:href="#ArialMT-52" transform="translate(844.873047 0)"/>
     <use xlink:href="#ArialMT-65" transform="translate(917.089844 0)"/>
     <use xlink:href="#ArialMT-70" transform="translate(972.705078 0)"/>
     <use xlink:href="#ArialMT-72" transform="translate(1028.320312 0)"/>
     <use xlink:href="#ArialMT-65" transform="translate(1061.621094 0)"/>
     <use xlink:href="#ArialMT-73" transform="translate(1117.236328 0)"/>
     <use xlink:href="#ArialMT-65" transform="translate(1167.236328 0)"/>
     <use xlink:href="#ArialMT-6e" transform="translate(1222.851562 0)"/>
     <use xlink:href="#ArialMT-74" transform="translate(1278.466797 0)"/>
     <use xlink:href="#ArialMT-61" transform="translate(1306.25 0)"/>
     <use xlink:href="#ArialMT-74" transform="translate(1361.865234 0)"/>
     <use xlink:href="#ArialMT-69" transform="translate(1389.648438 0)"/>
     <use xlink:href="#ArialMT-76" transform="translate(1411.865234 0)"/>
     <use xlink:href="#ArialMT-65" transform="translate(1461.865234 0)"/>
     <use xlink:href="#ArialMT-6e" transform="translate(1517.480469 0)"/>
     <use xlink:href="#ArialMT-65" transform="translate(1573.095703 0)"/>
     <use xlink:href="#ArialMT-73" transform="translate(1628.710938 0)"/>
     <use xlink:href="#ArialMT-73" transform="translate(1678.710938 0)"/>
     <use xlink:href="#ArialMT-20" transform="translate(1728.710938 0)"/>
     <use xlink:href="#ArialMT-6f" transform="translate(1756.494141 0)"/>
     <use xlink:href="#ArialMT-66" transform="translate(1812.109375 0)"/>
     <use xlink:href="#ArialMT-20" transform="translate(1839.892578 0)"/>
     <use xlink:href="#ArialMT-74" transform="translate(1867.675781 0)"/>
     <use xlink:href="#ArialMT-68" transform="translate(1895.458984 0)"/>
     <use xlink:href="#ArialMT-65" transform="translate(1951.074219 0)"/>
     <use xlink:href="#ArialMT-20" transform="translate(2006.689453 0)"/>
     <use xlink:href="#ArialMT-22" transform="translate(2034.472656 0)"/>
     <use xlink:href="#ArialMT-65" transform="translate(2069.970703 0)"/>
     <use xlink:href="#ArialMT-65" transform="translate(2125.585938 0)"/>
     <use xlink:href="#ArialMT-22" transform="translate(2181.201172 0)"/>
     <use xlink:href="#ArialMT-20" transform="translate(2216.699219 0)"/>
     <use xlink:href="#ArialMT-46" transform="translate(2244.482422 0)"/>
     <use xlink:href="#ArialMT-65" transform="translate(2305.566406 0)"/>
     <use xlink:href="#ArialMT-61" transform="translate(2361.181641 0)"/>
     <use xlink:href="#ArialMT-74" transform="translate(2416.796875 0)"/>
     <use xlink:href="#ArialMT-75" transform="translate(2444.580078 0)"/>
     <use xlink:href="#ArialMT-72" transform="translate(2500.195312 0)"/>
     <use xlink:href="#ArialMT-65" transform="translate(2533.496094 0)"/>
    </g>
   </g>
   <g id="legend_1">
    <g id="patch_7">
     <path d="M 461.89725 55.267125 
L 485.89725 55.267125 
L 485.89725 46.867125 
L 461.89725 46.867125 
z
" style="fill: #1f77b4; fill-opacity: 0.3; stroke: #1f77b4; stroke-width: 2; stroke-linejoin: miter"/>
    </g>
    <g id="text_17">
     <!-- Train (ee) -->
     <g style="fill: #262626" transform="translate(495.49725 55.267125) scale(0.12 -0.12)">
      <defs>
       <path id="ArialMT-54" d="M 1659 0 
L 1659 4041 
L 150 4041 
L 150 4581 
L 3781 4581 
L 3781 4041 
L 2266 4041 
L 2266 0 
L 1659 0 
z
" transform="scale(0.015625)"/>
       <path id="ArialMT-28" d="M 1497 -1347 
Q 1031 -759 709 28 
Q 388 816 388 1659 
Q 388 2403 628 3084 
Q 909 3875 1497 4659 
L 1900 4659 
Q 1522 4009 1400 3731 
Q 1209 3300 1100 2831 
Q 966 2247 966 1656 
Q 966 153 1900 -1347 
L 1497 -1347 
z
" transform="scale(0.015625)"/>
       <path id="ArialMT-29" d="M 791 -1347 
L 388 -1347 
Q 1322 153 1322 1656 
Q 1322 2244 1188 2822 
Q 1081 3291 891 3722 
Q 769 4003 388 4659 
L 791 4659 
Q 1378 3875 1659 3084 
Q 1900 2403 1900 1659 
Q 1900 816 1576 28 
Q 1253 -759 791 -1347 
z
" transform="scale(0.015625)"/>
      </defs>
      <use xlink:href="#ArialMT-54"/>
      <use xlink:href="#ArialMT-72" transform="translate(57.333984 0)"/>
      <use xlink:href="#ArialMT-61" transform="translate(90.634766 0)"/>
      <use xlink:href="#ArialMT-69" transform="translate(146.25 0)"/>
      <use xlink:href="#ArialMT-6e" transform="translate(168.466797 0)"/>
      <use xlink:href="#ArialMT-20" transform="translate(224.082031 0)"/>
      <use xlink:href="#ArialMT-28" transform="translate(251.865234 0)"/>
      <use xlink:href="#ArialMT-65" transform="translate(285.166016 0)"/>
      <use xlink:href="#ArialMT-65" transform="translate(340.78125 0)"/>
      <use xlink:href="#ArialMT-29" transform="translate(396.396484 0)"/>
     </g>
    </g>
    <g id="patch_8">
     <path d="M 461.89725 72.528375 
L 485.89725 72.528375 
L 485.89725 64.128375 
L 461.89725 64.128375 
z
" style="fill: #ff7f0e; fill-opacity: 0.3; stroke: #ff7f0e; stroke-width: 2; stroke-linejoin: miter"/>
    </g>
    <g id="text_18">
     <!-- Test (ee) -->
     <g style="fill: #262626" transform="translate(495.49725 72.528375) scale(0.12 -0.12)">
      <use xlink:href="#ArialMT-54"/>
      <use xlink:href="#ArialMT-65" transform="translate(49.958984 0)"/>
      <use xlink:href="#ArialMT-73" transform="translate(105.574219 0)"/>
      <use xlink:href="#ArialMT-74" transform="translate(155.574219 0)"/>
      <use xlink:href="#ArialMT-20" transform="translate(183.357422 0)"/>
      <use xlink:href="#ArialMT-28" transform="translate(211.140625 0)"/>
      <use xlink:href="#ArialMT-65" transform="translate(244.441406 0)"/>
      <use xlink:href="#ArialMT-65" transform="translate(300.056641 0)"/>
      <use xlink:href="#ArialMT-29" transform="translate(355.671875 0)"/>
     </g>
    </g>
   </g>
  </g>
 </g>
 <defs>
  <clipPath id="p7f48b33368">
   <rect x="83.124" y="35.7315" width="474.732" height="265.9845"/>
  </clipPath>
 </defs>
</svg>
